@startuml  abstract
' 用关键字 abstract 或 abstract class 来定义抽象类。抽象类用斜体显示。也可以使用 interface,
' annotation 和 enum 关键字。
abstract class AbstractList
abstract AbstractCollection
interface List
interface Collection
List <|-- AbstractList
Collection <|-- AbstractCollection
Collection <|- List
AbstractCollection <|- AbstractList
AbstractList <|-- ArrayList
class ArrayList {
Object[] elementData
size()
}
enum TimeUnit {
DAYS
HOURS
MINUTES
}
annotation SuppressWarnings
@enduml